<mxfile host="app.diagrams.net" modified="2023-06-16T12:32:40.434Z" agent="Mozilla/5.0 (Windows NT 10.0; Win64; x64) AppleWebKit/537.36 (KHTML, like Gecko) Chrome/114.0.0.0 Safari/537.36" version="21.4.0" etag="mvNrbnUNroi864ApGgUa" type="github">
  <diagram name="第 1 页" id="3M0_44kFlTgHg1n0JbZK">
    <mxGraphModel>
      <root>
        <mxCell id="0" />
        <mxCell id="1" parent="0" />
      </root>
    </mxGraphModel>
  </diagram>
</mxfile>
